<svg width="22" height="22" viewBox="0 0 22 22" fill="none" xmlns="http://www.w3.org/2000/svg">
<path fill-rule="evenodd" clip-rule="evenodd" d="M18.5777 1.46667H18.3789C18.1193 0.786133 17.5195 0 16.1332 0H5.62212C5.62212 0 3.66656 0 3.66656 1.71111C4.61159 1.71111 5.37767 2.4772 5.37767 3.42222C5.37767 4.36724 4.61159 5.13333 3.66656 5.13333H3.42212V5.86667H3.66656C4.61159 5.86667 5.37767 6.63276 5.37767 7.57778C5.37767 8.5228 4.61159 9.28889 3.66656 9.28889H3.42212V10.0222H3.54434C4.55683 10.0222 5.37767 10.8428 5.37767 11.8556C5.37767 12.8683 4.55683 13.6889 3.54434 13.6889H3.42212V14.4222H3.54434C4.55683 14.4222 5.37767 15.2428 5.37767 16.2556C5.37767 17.2683 4.55683 18.0889 3.54434 18.0889H3.42212V19.5556C3.42212 20.9054 4.5165 22 5.86656 22H18.5777C19.9277 22 21.0221 20.9054 21.0221 19.5556V3.91111C21.0221 2.56129 19.9277 1.46667 18.5777 1.46667ZM19.7999 19.0667C19.7999 20.0117 19.0338 20.7778 18.0888 20.7778H6.35545C5.49354 20.7778 4.7827 20.14 4.6639 19.3111H16.1332C16.1332 19.3111 18.3332 19.3111 18.3332 16.8667L18.5725 2.75929C19.2817 2.96804 19.7999 3.62291 19.7999 4.4V19.0667Z" fill="#6C6C70"/>
<path d="M3.42222 2.4444H1.46667C1.46667 2.4444 0 2.4444 0 4.15551C0 5.86662 1.95556 5.86662 1.95556 5.86662C1.95556 5.86662 1.22222 5.37773 1.22222 4.88884C1.22222 4.39995 1.95556 4.39995 1.95556 4.39995H3.42222C3.42222 4.39995 4.4 4.39995 4.4 3.42217C4.4 2.4444 3.42222 2.4444 3.42222 2.4444Z" fill="#6C6C70"/>
<path d="M3.42222 6.59998H1.46667C1.46667 6.59998 0 6.59998 0 8.31109C0 10.0222 1.95556 10.0222 1.95556 10.0222C1.95556 10.0222 1.22222 9.53331 1.22222 9.04442C1.22222 8.55553 1.95556 8.55553 1.95556 8.55553H3.42222C3.42222 8.55553 4.4 8.55553 4.4 7.57775C4.4 6.59998 3.42222 6.59998 3.42222 6.59998Z" fill="#6C6C70"/>
<path d="M3.42222 11.0001H1.46667C1.46667 11.0001 0 11.0001 0 12.7112C0 14.4223 1.95556 14.4223 1.95556 14.4223C1.95556 14.4223 1.22222 13.9334 1.22222 13.4445C1.22222 12.9556 1.95556 12.9556 1.95556 12.9556H3.42222C3.42222 12.9556 4.4 12.9556 4.4 11.9778C4.4 11.0001 3.42222 11.0001 3.42222 11.0001Z" fill="#6C6C70"/>
<path d="M3.42222 15.1555H1.46667C1.46667 15.1555 0 15.1555 0 16.8666C0 18.5777 1.95556 18.5777 1.95556 18.5777C1.95556 18.5777 1.22222 18.0888 1.22222 17.5999C1.22222 17.111 1.95556 17.111 1.95556 17.111H3.42222C3.42222 17.111 4.4 17.111 4.4 16.1332C4.4 15.1555 3.42222 15.1555 3.42222 15.1555Z" fill="#6C6C70"/>
</svg>
