<svg width="34" height="54" viewBox="0 0 34 54" fill="none" xmlns="http://www.w3.org/2000/svg">
<path d="M28.6875 0H5.0625C2.26758 0 0 2.26758 0 5.0625V48.9375C0 51.7324 2.26758 54 5.0625 54H28.6875C31.4824 54 33.75 51.7324 33.75 48.9375V5.0625C33.75 2.26758 31.4824 0 28.6875 0ZM16.875 50.625C15.0082 50.625 13.5 49.1168 13.5 47.25C13.5 45.3832 15.0082 43.875 16.875 43.875C18.7418 43.875 20.25 45.3832 20.25 47.25C20.25 49.1168 18.7418 50.625 16.875 50.625ZM28.6875 39.2344C28.6875 39.9305 28.118 40.5 27.4219 40.5H6.32812C5.63203 40.5 5.0625 39.9305 5.0625 39.2344V6.32812C5.0625 5.63203 5.63203 5.0625 6.32812 5.0625H27.4219C28.118 5.0625 28.6875 5.63203 28.6875 6.32812V39.2344Z" fill="#767676"/>
</svg>
