<svg width="21" height="22" viewBox="0 0 21 22" fill="none" xmlns="http://www.w3.org/2000/svg">
<path d="M20.5 8.66809C20.5 9.15772 20.0977 9.55569 19.6028 9.55569H18.231V19.8693C18.231 21.0453 17.266 22 16.0773 22H13.0263V15.9634C13.0263 15.5722 12.7054 15.2547 12.3077 15.2524H8.181C7.78551 15.2524 7.46233 15.5699 7.46233 15.9634V22H4.4114C3.22266 22 2.25767 21.0453 2.25767 19.8693V9.55569H0.897174C0.63276 9.55569 0.379645 9.43943 0.210149 9.23821C-0.108504 8.8626 -0.0587854 8.30366 0.318627 7.98841L9.66805 0.207927C10.0025 -0.0693089 10.4884 -0.0693089 10.8229 0.207927L20.1068 7.93252C20.3508 8.1002 20.5 8.3752 20.5 8.66809Z" fill="#6C6C70"/>
</svg>
