<svg width="24" height="22" viewBox="0 0 24 22" fill="none" xmlns="http://www.w3.org/2000/svg">
<path d="M1.49256 10.032C1.02323 10.4231 0.39745 10.2667 0.162783 9.71911C-0.150106 9.17155 0.00633886 8.46755 0.475672 8.15466L11.0357 0.176C11.3486 -0.0586666 11.7397 -0.0586666 12.0526 0.176L22.6126 8.15466C23.0037 8.46755 23.1601 9.17155 22.8472 9.71911C22.6126 10.2667 21.9868 10.4231 21.5174 10.032L11.505 2.44444L1.49256 10.032Z" fill="#6C6C70"/>
<path fill-rule="evenodd" clip-rule="evenodd" d="M20.344 10.6577V20.5137C20.344 21.296 19.7182 22 18.8578 22H14.712V14.4906C14.712 13.7084 14.0862 13.1608 13.3822 13.1608H9.70577C8.92355 13.1608 8.37599 13.7084 8.37599 14.4906V22H4.15199C3.36977 22 2.66577 21.296 2.66577 20.5137V10.6577L11.5049 4.00885L20.344 10.6577Z" fill="#6C6C70"/>
</svg>
