<svg width="18" height="18" viewBox="0 0 18 18" fill="none" xmlns="http://www.w3.org/2000/svg">
<path d="M17.25 8.25H15.75V6.74999C15.75 6.33578 15.4142 6 15 6C14.5858 6 14.25 6.33578 14.25 6.74999V8.25H12.75C12.3358 8.25 12 8.58578 12 8.99999C12 9.4142 12.3358 9.74998 12.75 9.74998H14.25V11.25C14.25 11.6642 14.5858 12 15 12C15.4142 12 15.75 11.6642 15.75 11.25V9.74998H17.25C17.6642 9.74998 18 9.4142 18 8.99999C18 8.58578 17.6642 8.25 17.25 8.25Z" fill="#6C6C70"/>
<path d="M6.75 9C9.23528 9 11.25 6.98528 11.25 4.5C11.25 2.01472 9.23528 0 6.75 0C4.26472 0 2.25 2.01472 2.25 4.5C2.25 6.98528 4.26472 9 6.75 9Z" fill="#6C6C70"/>
<path d="M6.75 10.5C3.02379 10.5041 0.00414844 13.5238 0 17.25C0 17.6642 0.335777 18 0.749988 18H12.75C13.1642 18 13.5 17.6642 13.5 17.25C13.4958 13.5238 10.4762 10.5041 6.75 10.5Z" fill="#6C6C70"/>
</svg>
