<svg width="64" height="63" viewBox="0 0 64 63" fill="none" xmlns="http://www.w3.org/2000/svg">
<path d="M36.1858 6.86859C34.4318 3.84038 30.6047 2.72472 27.4952 4.47789L11.31 13.6422C8.2802 15.3954 7.16398 19.2205 8.91805 22.3284L27.8939 55.7981C29.648 58.8263 33.475 59.9419 36.5845 58.1888L52.7698 49.0245C55.7995 47.2713 56.9158 43.4462 55.1617 40.3383L36.1858 6.86859ZM28.8506 53.4871L11.31 22.6472L35.2291 9.17959L52.7698 40.0195L28.8506 53.4871ZM46.79 3.12317L47.1886 1.92782C47.3481 1.44968 47.2684 0.971545 46.9494 0.573097C46.6305 0.174648 46.1521 -0.064421 45.6738 0.0152687L38.9764 0.573097C38.2588 0.652786 37.621 1.21062 37.621 1.92782C37.5413 2.64503 38.0994 3.36224 38.8169 3.44193C40.7305 3.84038 42.644 4.47789 44.3981 5.27479C49.8995 7.74517 54.3644 11.8093 57.3941 17.0689C61.3807 24.0816 62.178 32.3693 59.5469 40.0195C59.3077 40.8164 59.7063 41.6133 60.5036 41.9321C60.9023 42.0914 61.3807 42.0118 61.6996 41.8524C62.0185 41.693 62.2577 41.3742 62.3374 41.0555C65.2077 32.6881 64.3307 23.444 59.9455 15.7141C56.836 10.1359 52.2914 5.83262 46.79 3.12317ZM17.2897 59.5435L16.8911 60.7388C16.7316 61.217 16.8114 61.6951 17.1303 62.0936C17.4492 62.492 17.9276 62.7311 18.406 62.6514L25.1033 62.0936C25.3425 62.0936 25.502 62.0139 25.7412 61.9342C26.1398 61.6951 26.4587 61.217 26.4587 60.7388C26.5385 60.0216 25.9804 59.3044 25.2628 59.2247C23.3493 58.8263 21.4357 58.1888 19.6817 57.3919C14.1803 54.9215 9.71535 50.8573 6.6856 45.5978C2.69908 38.5851 1.90177 30.2974 4.53288 22.6472C4.77207 21.8503 4.37342 21.0534 3.57611 20.7346C2.77881 20.4955 1.9815 20.894 1.66258 21.6909C-1.20771 30.0583 -0.330679 39.3023 4.05449 47.0322C7.24371 52.5308 11.7883 56.8341 17.2897 59.5435Z" fill="#767676"/>
</svg>
