<svg width="17" height="17" viewBox="0 0 17 17" fill="none" xmlns="http://www.w3.org/2000/svg">
<path d="M17 4.42393C17 9.83391 9.82573 17 4.42202 17C3.23929 17 2.13447 16.5539 1.32001 15.7396L0.611795 14.9252C-0.20974 14.1038 -0.20974 12.7159 0.647206 11.8591C0.668452 11.8379 2.37526 10.5279 2.37526 10.5279C3.22513 9.72061 4.56366 9.72061 5.40644 10.5279L6.44044 11.3563C8.70675 10.3933 10.3144 8.77882 11.3484 6.43497L10.5269 5.40112C9.71242 4.55847 9.71242 3.21306 10.5269 2.37041C10.5269 2.37041 11.8371 0.663855 11.8583 0.642612C12.7153 -0.214204 14.1034 -0.214204 14.9603 0.642612L15.704 1.28699C16.5538 2.12965 17 3.2343 17 4.41685V4.42393Z" fill="#6C6C70"/>
</svg>
